<svg width="319" height="150" viewBox="0 0 319 150" fill="none" xmlns="http://www.w3.org/2000/svg">
<g clip-path="url(#clip0_1617_4)">
<mask id="mask0_1617_4" style="mask-type:luminance" maskUnits="userSpaceOnUse" x="31" y="75" width="61" height="74">
<path d="M31.125 75.448H91.768V148.16H31.125V75.448Z" fill="white"/>
</mask>
<g mask="url(#mask0_1617_4)">
<path d="M83.2237 147.261L31.2041 95.2371L50.8674 75.5737L83.2237 107.93C94.0774 118.784 94.0774 136.412 83.2237 147.261Z" fill="#041F60"/>
</g>
<mask id="mask1_1617_4" style="mask-type:luminance" maskUnits="userSpaceOnUse" x="31" y="2" width="61" height="94">
<path d="M31.125 2.73596H91.768V95.712H31.125V2.73596Z" fill="white"/>
</mask>
<g mask="url(#mask1_1617_4)">
<path d="M83.2237 43.2174L31.2041 95.237V55.9103L83.2237 3.88605C94.1147 14.7398 94.1147 32.3683 83.2237 43.2174Z" fill="#F7941D"/>
</g>
<path d="M117.272 86.8183L132.861 54.8578H144.557L116.843 110.304L87.7139 54.8578H100.751L117.272 86.8183Z" fill="#041F60"/>
<path d="M171.052 109.355H137.248V54.8578H166.21V65.1015H148.591V75.2708H169.078V85.44H148.591V99.1108H171.052V109.355Z" fill="#041F60"/>
<path d="M188.084 109.355H176.741V65.1015H163.294V54.8578H202.425V65.1015H188.084V109.355Z" fill="#041F60"/>
<path d="M196.948 54.8578H208.291V99.1108H230.231V109.355H196.948V54.8578Z" fill="#F7941D"/>
<path d="M258.257 109.355H224.452V54.8578H253.414V65.1015H235.795V75.2708H256.282V85.44H235.795V99.1108H258.257V109.355Z" fill="#F7941D"/>
<path d="M265.64 109.355H254.298V54.8578H272.886C276.247 54.8578 279.316 55.4817 282.086 56.7203C284.866 57.9635 287.269 59.6211 289.294 61.6932C291.315 63.7699 292.889 66.1073 294.006 68.7148C295.133 71.3223 295.701 74.0183 295.701 76.798C295.701 81.431 294.686 85.589 292.665 89.2768C290.64 92.9552 287.86 95.8421 284.321 97.9374C280.792 100.037 276.732 101.085 272.141 101.085H265.64V109.355ZM265.64 90.7668H271.861C274.492 90.7668 276.722 90.1987 278.548 89.0533C280.373 87.9125 281.751 86.3666 282.682 84.4157C283.614 82.4554 284.079 80.3089 284.079 77.9714C284.079 75.8249 283.623 73.7761 282.72 71.8252C281.812 69.8789 280.503 68.2678 278.79 67.0013C277.086 65.7348 274.995 65.1015 272.513 65.1015H265.64V90.7668Z" fill="#F7941D"/>
<mask id="mask2_1617_4" style="mask-type:luminance" maskUnits="userSpaceOnUse" x="106" y="53" width="19" height="19">
<path d="M106.696 53.1586H124.553V71.0153H106.696V53.1586Z" fill="white"/>
</mask>
<g mask="url(#mask2_1617_4)">
<mask id="mask3_1617_4" style="mask-type:luminance" maskUnits="userSpaceOnUse" x="106" y="53" width="19" height="19">
<path d="M115.622 53.1586C110.691 53.1586 106.696 57.1583 106.696 62.0893C106.696 67.0202 110.691 71.0153 115.622 71.0153C120.558 71.0153 124.553 67.0202 124.553 62.0893C124.553 57.1583 120.558 53.1586 115.622 53.1586Z" fill="white"/>
</mask>
<g mask="url(#mask3_1617_4)">
<path d="M106.696 53.1586H124.553V71.0153H106.696V53.1586Z" fill="#FF9600"/>
</g>
</g>
<mask id="mask4_1617_4" style="mask-type:luminance" maskUnits="userSpaceOnUse" x="111" y="39" width="10" height="10">
<path d="M111.161 39.2596H120.087V48.1857H111.161V39.2596Z" fill="white"/>
</mask>
<g mask="url(#mask4_1617_4)">
<mask id="mask5_1617_4" style="mask-type:luminance" maskUnits="userSpaceOnUse" x="111" y="39" width="10" height="10">
<path d="M115.622 39.2596C113.159 39.2596 111.161 41.2572 111.161 43.725C111.161 46.1881 113.159 48.1857 115.622 48.1857C118.09 48.1857 120.087 46.1881 120.087 43.725C120.087 41.2572 118.09 39.2596 115.622 39.2596Z" fill="white"/>
</mask>
<g mask="url(#mask5_1617_4)">
<path d="M111.161 39.2596H120.087V48.1857H111.161V39.2596Z" fill="#FF9600"/>
</g>
</g>
</g>
<defs>
<clipPath id="clip0_1617_4">
<rect width="319" height="150" fill="white"/>
</clipPath>
</defs>
</svg>
